<mxfile host="app.diagrams.net" agent="Mozilla/5.0 (Windows NT 10.0; Win64; x64) AppleWebKit/537.36 (KHTML, like Gecko) Chrome/132.0.0.0 YaBrowser/25.2.0.0 Safari/537.36" version="26.1.0">
  <diagram name="Страница — 1" id="uZZWH_ZLQHta3NsEkrx_">
    <mxGraphModel dx="1434" dy="1928" grid="1" gridSize="10" guides="1" tooltips="1" connect="1" arrows="1" fold="1" page="1" pageScale="1" pageWidth="827" pageHeight="1169" math="0" shadow="0">
      <root>
        <mxCell id="0" />
        <mxCell id="1" parent="0" />
        <mxCell id="jzI1_n5GK29NUhj0wHnl-68" style="edgeStyle=orthogonalEdgeStyle;rounded=0;orthogonalLoop=1;jettySize=auto;html=1;endArrow=none;startFill=0;" edge="1" parent="1" source="jzI1_n5GK29NUhj0wHnl-1" target="jzI1_n5GK29NUhj0wHnl-13">
          <mxGeometry relative="1" as="geometry">
            <Array as="points">
              <mxPoint x="310" y="120" />
            </Array>
          </mxGeometry>
        </mxCell>
        <mxCell id="jzI1_n5GK29NUhj0wHnl-1" value="MainWindow" style="swimlane;fontStyle=1;align=center;verticalAlign=top;childLayout=stackLayout;horizontal=1;startSize=26;horizontalStack=0;resizeParent=1;resizeParentMax=0;resizeLast=0;collapsible=1;marginBottom=0;whiteSpace=wrap;html=1;" vertex="1" parent="1">
          <mxGeometry x="190" y="180" width="240" height="86" as="geometry" />
        </mxCell>
        <mxCell id="jzI1_n5GK29NUhj0wHnl-2" value="+MainWindow Singleton" style="text;strokeColor=none;fillColor=none;align=left;verticalAlign=top;spacingLeft=4;spacingRight=4;overflow=hidden;rotatable=0;points=[[0,0.5],[1,0.5]];portConstraint=eastwest;whiteSpace=wrap;html=1;" vertex="1" parent="jzI1_n5GK29NUhj0wHnl-1">
          <mxGeometry y="26" width="240" height="26" as="geometry" />
        </mxCell>
        <mxCell id="jzI1_n5GK29NUhj0wHnl-3" value="" style="line;strokeWidth=1;fillColor=none;align=left;verticalAlign=middle;spacingTop=-1;spacingLeft=3;spacingRight=3;rotatable=0;labelPosition=right;points=[];portConstraint=eastwest;strokeColor=inherit;" vertex="1" parent="jzI1_n5GK29NUhj0wHnl-1">
          <mxGeometry y="52" width="240" height="8" as="geometry" />
        </mxCell>
        <mxCell id="jzI1_n5GK29NUhj0wHnl-4" value="+onTourApiResult(List&amp;lt;Tour&amp;gt; tours): void&amp;nbsp;" style="text;strokeColor=none;fillColor=none;align=left;verticalAlign=top;spacingLeft=4;spacingRight=4;overflow=hidden;rotatable=0;points=[[0,0.5],[1,0.5]];portConstraint=eastwest;whiteSpace=wrap;html=1;" vertex="1" parent="jzI1_n5GK29NUhj0wHnl-1">
          <mxGeometry y="60" width="240" height="26" as="geometry" />
        </mxCell>
        <mxCell id="jzI1_n5GK29NUhj0wHnl-5" value="HelpWindow" style="swimlane;fontStyle=1;align=center;verticalAlign=top;childLayout=stackLayout;horizontal=1;startSize=26;horizontalStack=0;resizeParent=1;resizeParentMax=0;resizeLast=0;collapsible=1;marginBottom=0;whiteSpace=wrap;html=1;" vertex="1" parent="1">
          <mxGeometry x="490" y="189" width="180" height="60" as="geometry" />
        </mxCell>
        <mxCell id="jzI1_n5GK29NUhj0wHnl-7" value="" style="line;strokeWidth=1;fillColor=none;align=left;verticalAlign=middle;spacingTop=-1;spacingLeft=3;spacingRight=3;rotatable=0;labelPosition=right;points=[];portConstraint=eastwest;strokeColor=inherit;" vertex="1" parent="jzI1_n5GK29NUhj0wHnl-5">
          <mxGeometry y="26" width="180" height="8" as="geometry" />
        </mxCell>
        <mxCell id="jzI1_n5GK29NUhj0wHnl-8" value="+HelpWindow(string helpText)" style="text;strokeColor=none;fillColor=none;align=left;verticalAlign=top;spacingLeft=4;spacingRight=4;overflow=hidden;rotatable=0;points=[[0,0.5],[1,0.5]];portConstraint=eastwest;whiteSpace=wrap;html=1;" vertex="1" parent="jzI1_n5GK29NUhj0wHnl-5">
          <mxGeometry y="34" width="180" height="26" as="geometry" />
        </mxCell>
        <mxCell id="jzI1_n5GK29NUhj0wHnl-72" style="edgeStyle=orthogonalEdgeStyle;rounded=0;orthogonalLoop=1;jettySize=auto;html=1;endArrow=none;startFill=0;" edge="1" parent="1" source="jzI1_n5GK29NUhj0wHnl-9" target="jzI1_n5GK29NUhj0wHnl-13">
          <mxGeometry relative="1" as="geometry">
            <Array as="points">
              <mxPoint x="1180" y="157" />
            </Array>
          </mxGeometry>
        </mxCell>
        <mxCell id="jzI1_n5GK29NUhj0wHnl-9" value="VoiceManager" style="swimlane;fontStyle=1;align=center;verticalAlign=top;childLayout=stackLayout;horizontal=1;startSize=26;horizontalStack=0;resizeParent=1;resizeParentMax=0;resizeLast=0;collapsible=1;marginBottom=0;whiteSpace=wrap;html=1;" vertex="1" parent="1">
          <mxGeometry x="1060" y="460" width="240" height="112" as="geometry" />
        </mxCell>
        <mxCell id="jzI1_n5GK29NUhj0wHnl-11" value="" style="line;strokeWidth=1;fillColor=none;align=left;verticalAlign=middle;spacingTop=-1;spacingLeft=3;spacingRight=3;rotatable=0;labelPosition=right;points=[];portConstraint=eastwest;strokeColor=inherit;" vertex="1" parent="jzI1_n5GK29NUhj0wHnl-9">
          <mxGeometry y="26" width="240" height="8" as="geometry" />
        </mxCell>
        <mxCell id="jzI1_n5GK29NUhj0wHnl-12" value="+StopSpeak(): void" style="text;strokeColor=none;fillColor=none;align=left;verticalAlign=top;spacingLeft=4;spacingRight=4;overflow=hidden;rotatable=0;points=[[0,0.5],[1,0.5]];portConstraint=eastwest;whiteSpace=wrap;html=1;" vertex="1" parent="jzI1_n5GK29NUhj0wHnl-9">
          <mxGeometry y="34" width="240" height="26" as="geometry" />
        </mxCell>
        <mxCell id="jzI1_n5GK29NUhj0wHnl-42" value="+TextToSpeechAsync(string text): Task&amp;nbsp;" style="text;strokeColor=none;fillColor=none;align=left;verticalAlign=top;spacingLeft=4;spacingRight=4;overflow=hidden;rotatable=0;points=[[0,0.5],[1,0.5]];portConstraint=eastwest;whiteSpace=wrap;html=1;" vertex="1" parent="jzI1_n5GK29NUhj0wHnl-9">
          <mxGeometry y="60" width="240" height="26" as="geometry" />
        </mxCell>
        <mxCell id="jzI1_n5GK29NUhj0wHnl-41" value="+SpeechToTextAsync(): Task&amp;lt;string&amp;gt;" style="text;strokeColor=none;fillColor=none;align=left;verticalAlign=top;spacingLeft=4;spacingRight=4;overflow=hidden;rotatable=0;points=[[0,0.5],[1,0.5]];portConstraint=eastwest;whiteSpace=wrap;html=1;" vertex="1" parent="jzI1_n5GK29NUhj0wHnl-9">
          <mxGeometry y="86" width="240" height="26" as="geometry" />
        </mxCell>
        <mxCell id="jzI1_n5GK29NUhj0wHnl-74" style="edgeStyle=orthogonalEdgeStyle;rounded=0;orthogonalLoop=1;jettySize=auto;html=1;endArrow=none;startFill=0;" edge="1" parent="1" source="jzI1_n5GK29NUhj0wHnl-13" target="jzI1_n5GK29NUhj0wHnl-21">
          <mxGeometry relative="1" as="geometry" />
        </mxCell>
        <mxCell id="jzI1_n5GK29NUhj0wHnl-76" style="edgeStyle=orthogonalEdgeStyle;rounded=0;orthogonalLoop=1;jettySize=auto;html=1;endArrow=none;startFill=0;" edge="1" parent="1" source="jzI1_n5GK29NUhj0wHnl-13" target="jzI1_n5GK29NUhj0wHnl-37">
          <mxGeometry relative="1" as="geometry">
            <Array as="points">
              <mxPoint x="420" y="70" />
            </Array>
          </mxGeometry>
        </mxCell>
        <mxCell id="jzI1_n5GK29NUhj0wHnl-13" value="VoiceController" style="swimlane;fontStyle=1;align=center;verticalAlign=top;childLayout=stackLayout;horizontal=1;startSize=26;horizontalStack=0;resizeParent=1;resizeParentMax=0;resizeLast=0;collapsible=1;marginBottom=0;whiteSpace=wrap;html=1;" vertex="1" parent="1">
          <mxGeometry x="720" y="23" width="300" height="268" as="geometry" />
        </mxCell>
        <mxCell id="jzI1_n5GK29NUhj0wHnl-50" value="- VoiceContext context" style="text;strokeColor=none;fillColor=none;align=left;verticalAlign=top;spacingLeft=4;spacingRight=4;overflow=hidden;rotatable=0;points=[[0,0.5],[1,0.5]];portConstraint=eastwest;whiteSpace=wrap;html=1;" vertex="1" parent="jzI1_n5GK29NUhj0wHnl-13">
          <mxGeometry y="26" width="300" height="26" as="geometry" />
        </mxCell>
        <mxCell id="jzI1_n5GK29NUhj0wHnl-15" value="" style="line;strokeWidth=1;fillColor=none;align=left;verticalAlign=middle;spacingTop=-1;spacingLeft=3;spacingRight=3;rotatable=0;labelPosition=right;points=[];portConstraint=eastwest;strokeColor=inherit;" vertex="1" parent="jzI1_n5GK29NUhj0wHnl-13">
          <mxGeometry y="52" width="300" height="8" as="geometry" />
        </mxCell>
        <mxCell id="jzI1_n5GK29NUhj0wHnl-16" value="+SuccessGetText(string text): void" style="text;strokeColor=none;fillColor=none;align=left;verticalAlign=top;spacingLeft=4;spacingRight=4;overflow=hidden;rotatable=0;points=[[0,0.5],[1,0.5]];portConstraint=eastwest;whiteSpace=wrap;html=1;" vertex="1" parent="jzI1_n5GK29NUhj0wHnl-13">
          <mxGeometry y="60" width="300" height="26" as="geometry" />
        </mxCell>
        <mxCell id="jzI1_n5GK29NUhj0wHnl-43" value="+onGetTourError(): void" style="text;strokeColor=none;fillColor=none;align=left;verticalAlign=top;spacingLeft=4;spacingRight=4;overflow=hidden;rotatable=0;points=[[0,0.5],[1,0.5]];portConstraint=eastwest;whiteSpace=wrap;html=1;" vertex="1" parent="jzI1_n5GK29NUhj0wHnl-13">
          <mxGeometry y="86" width="300" height="26" as="geometry" />
        </mxCell>
        <mxCell id="jzI1_n5GK29NUhj0wHnl-46" value="+&amp;nbsp;onGetTourResult(List&amp;lt;Tour&amp;gt; tours): void" style="text;strokeColor=none;fillColor=none;align=left;verticalAlign=top;spacingLeft=4;spacingRight=4;overflow=hidden;rotatable=0;points=[[0,0.5],[1,0.5]];portConstraint=eastwest;whiteSpace=wrap;html=1;" vertex="1" parent="jzI1_n5GK29NUhj0wHnl-13">
          <mxGeometry y="112" width="300" height="26" as="geometry" />
        </mxCell>
        <mxCell id="jzI1_n5GK29NUhj0wHnl-49" value="+&amp;nbsp;SuccessReadText(string text): void" style="text;strokeColor=none;fillColor=none;align=left;verticalAlign=top;spacingLeft=4;spacingRight=4;overflow=hidden;rotatable=0;points=[[0,0.5],[1,0.5]];portConstraint=eastwest;whiteSpace=wrap;html=1;" vertex="1" parent="jzI1_n5GK29NUhj0wHnl-13">
          <mxGeometry y="138" width="300" height="26" as="geometry" />
        </mxCell>
        <mxCell id="jzI1_n5GK29NUhj0wHnl-48" value="+&amp;nbsp;Error(string errorCode, string errorDetails): void" style="text;strokeColor=none;fillColor=none;align=left;verticalAlign=top;spacingLeft=4;spacingRight=4;overflow=hidden;rotatable=0;points=[[0,0.5],[1,0.5]];portConstraint=eastwest;whiteSpace=wrap;html=1;" vertex="1" parent="jzI1_n5GK29NUhj0wHnl-13">
          <mxGeometry y="164" width="300" height="26" as="geometry" />
        </mxCell>
        <mxCell id="jzI1_n5GK29NUhj0wHnl-47" value="+&amp;nbsp;Cancel(string reason): void" style="text;strokeColor=none;fillColor=none;align=left;verticalAlign=top;spacingLeft=4;spacingRight=4;overflow=hidden;rotatable=0;points=[[0,0.5],[1,0.5]];portConstraint=eastwest;whiteSpace=wrap;html=1;" vertex="1" parent="jzI1_n5GK29NUhj0wHnl-13">
          <mxGeometry y="190" width="300" height="26" as="geometry" />
        </mxCell>
        <mxCell id="jzI1_n5GK29NUhj0wHnl-45" value="+&amp;nbsp;Init(): void" style="text;strokeColor=none;fillColor=none;align=left;verticalAlign=top;spacingLeft=4;spacingRight=4;overflow=hidden;rotatable=0;points=[[0,0.5],[1,0.5]];portConstraint=eastwest;whiteSpace=wrap;html=1;" vertex="1" parent="jzI1_n5GK29NUhj0wHnl-13">
          <mxGeometry y="216" width="300" height="26" as="geometry" />
        </mxCell>
        <mxCell id="jzI1_n5GK29NUhj0wHnl-44" value="+&amp;nbsp;StartDialog(): void" style="text;strokeColor=none;fillColor=none;align=left;verticalAlign=top;spacingLeft=4;spacingRight=4;overflow=hidden;rotatable=0;points=[[0,0.5],[1,0.5]];portConstraint=eastwest;whiteSpace=wrap;html=1;" vertex="1" parent="jzI1_n5GK29NUhj0wHnl-13">
          <mxGeometry y="242" width="300" height="26" as="geometry" />
        </mxCell>
        <mxCell id="jzI1_n5GK29NUhj0wHnl-75" style="edgeStyle=orthogonalEdgeStyle;rounded=0;orthogonalLoop=1;jettySize=auto;html=1;endArrow=none;startFill=0;" edge="1" parent="1" source="jzI1_n5GK29NUhj0wHnl-17" target="jzI1_n5GK29NUhj0wHnl-33">
          <mxGeometry relative="1" as="geometry">
            <Array as="points">
              <mxPoint x="790" y="442" />
            </Array>
          </mxGeometry>
        </mxCell>
        <mxCell id="jzI1_n5GK29NUhj0wHnl-17" value="VoiceContext" style="swimlane;fontStyle=1;align=center;verticalAlign=top;childLayout=stackLayout;horizontal=1;startSize=26;horizontalStack=0;resizeParent=1;resizeParentMax=0;resizeLast=0;collapsible=1;marginBottom=0;whiteSpace=wrap;html=1;" vertex="1" parent="1">
          <mxGeometry x="870" y="360" width="160" height="164" as="geometry" />
        </mxCell>
        <mxCell id="jzI1_n5GK29NUhj0wHnl-51" value="+&amp;nbsp;List&amp;lt;Tour&amp;gt; SearchResult&amp;nbsp;" style="text;strokeColor=none;fillColor=none;align=left;verticalAlign=top;spacingLeft=4;spacingRight=4;overflow=hidden;rotatable=0;points=[[0,0.5],[1,0.5]];portConstraint=eastwest;whiteSpace=wrap;html=1;" vertex="1" parent="jzI1_n5GK29NUhj0wHnl-17">
          <mxGeometry y="26" width="160" height="26" as="geometry" />
        </mxCell>
        <mxCell id="jzI1_n5GK29NUhj0wHnl-52" value="+&amp;nbsp;string SearchText&amp;nbsp;" style="text;strokeColor=none;fillColor=none;align=left;verticalAlign=top;spacingLeft=4;spacingRight=4;overflow=hidden;rotatable=0;points=[[0,0.5],[1,0.5]];portConstraint=eastwest;whiteSpace=wrap;html=1;" vertex="1" parent="jzI1_n5GK29NUhj0wHnl-17">
          <mxGeometry y="52" width="160" height="26" as="geometry" />
        </mxCell>
        <mxCell id="jzI1_n5GK29NUhj0wHnl-54" value="+ Tour CurrentTour" style="text;strokeColor=none;fillColor=none;align=left;verticalAlign=top;spacingLeft=4;spacingRight=4;overflow=hidden;rotatable=0;points=[[0,0.5],[1,0.5]];portConstraint=eastwest;whiteSpace=wrap;html=1;" vertex="1" parent="jzI1_n5GK29NUhj0wHnl-17">
          <mxGeometry y="78" width="160" height="26" as="geometry" />
        </mxCell>
        <mxCell id="jzI1_n5GK29NUhj0wHnl-53" value="+&amp;nbsp;int CurrentItemNum" style="text;strokeColor=none;fillColor=none;align=left;verticalAlign=top;spacingLeft=4;spacingRight=4;overflow=hidden;rotatable=0;points=[[0,0.5],[1,0.5]];portConstraint=eastwest;whiteSpace=wrap;html=1;" vertex="1" parent="jzI1_n5GK29NUhj0wHnl-17">
          <mxGeometry y="104" width="160" height="26" as="geometry" />
        </mxCell>
        <mxCell id="jzI1_n5GK29NUhj0wHnl-18" value="+&amp;nbsp;ContextType Stage" style="text;strokeColor=none;fillColor=none;align=left;verticalAlign=top;spacingLeft=4;spacingRight=4;overflow=hidden;rotatable=0;points=[[0,0.5],[1,0.5]];portConstraint=eastwest;whiteSpace=wrap;html=1;" vertex="1" parent="jzI1_n5GK29NUhj0wHnl-17">
          <mxGeometry y="130" width="160" height="26" as="geometry" />
        </mxCell>
        <mxCell id="jzI1_n5GK29NUhj0wHnl-19" value="" style="line;strokeWidth=1;fillColor=none;align=left;verticalAlign=middle;spacingTop=-1;spacingLeft=3;spacingRight=3;rotatable=0;labelPosition=right;points=[];portConstraint=eastwest;strokeColor=inherit;" vertex="1" parent="jzI1_n5GK29NUhj0wHnl-17">
          <mxGeometry y="156" width="160" height="8" as="geometry" />
        </mxCell>
        <mxCell id="jzI1_n5GK29NUhj0wHnl-21" value="ApiHandler" style="swimlane;fontStyle=1;align=center;verticalAlign=top;childLayout=stackLayout;horizontal=1;startSize=26;horizontalStack=0;resizeParent=1;resizeParentMax=0;resizeLast=0;collapsible=1;marginBottom=0;whiteSpace=wrap;html=1;" vertex="1" parent="1">
          <mxGeometry x="770" y="-100" width="200" height="60" as="geometry" />
        </mxCell>
        <mxCell id="jzI1_n5GK29NUhj0wHnl-23" value="" style="line;strokeWidth=1;fillColor=none;align=left;verticalAlign=middle;spacingTop=-1;spacingLeft=3;spacingRight=3;rotatable=0;labelPosition=right;points=[];portConstraint=eastwest;strokeColor=inherit;" vertex="1" parent="jzI1_n5GK29NUhj0wHnl-21">
          <mxGeometry y="26" width="200" height="8" as="geometry" />
        </mxCell>
        <mxCell id="jzI1_n5GK29NUhj0wHnl-24" value="+GetToursAsync(string text): Task&amp;nbsp;" style="text;strokeColor=none;fillColor=none;align=left;verticalAlign=top;spacingLeft=4;spacingRight=4;overflow=hidden;rotatable=0;points=[[0,0.5],[1,0.5]];portConstraint=eastwest;whiteSpace=wrap;html=1;" vertex="1" parent="jzI1_n5GK29NUhj0wHnl-21">
          <mxGeometry y="34" width="200" height="26" as="geometry" />
        </mxCell>
        <mxCell id="jzI1_n5GK29NUhj0wHnl-25" value="DataListElement" style="swimlane;fontStyle=1;align=center;verticalAlign=top;childLayout=stackLayout;horizontal=1;startSize=26;horizontalStack=0;resizeParent=1;resizeParentMax=0;resizeLast=0;collapsible=1;marginBottom=0;whiteSpace=wrap;html=1;" vertex="1" parent="1">
          <mxGeometry x="490" y="291" width="170" height="86" as="geometry" />
        </mxCell>
        <mxCell id="jzI1_n5GK29NUhj0wHnl-26" value="-Tour Tour&amp;nbsp;" style="text;strokeColor=none;fillColor=none;align=left;verticalAlign=top;spacingLeft=4;spacingRight=4;overflow=hidden;rotatable=0;points=[[0,0.5],[1,0.5]];portConstraint=eastwest;whiteSpace=wrap;html=1;" vertex="1" parent="jzI1_n5GK29NUhj0wHnl-25">
          <mxGeometry y="26" width="170" height="26" as="geometry" />
        </mxCell>
        <mxCell id="jzI1_n5GK29NUhj0wHnl-27" value="" style="line;strokeWidth=1;fillColor=none;align=left;verticalAlign=middle;spacingTop=-1;spacingLeft=3;spacingRight=3;rotatable=0;labelPosition=right;points=[];portConstraint=eastwest;strokeColor=inherit;" vertex="1" parent="jzI1_n5GK29NUhj0wHnl-25">
          <mxGeometry y="52" width="170" height="8" as="geometry" />
        </mxCell>
        <mxCell id="jzI1_n5GK29NUhj0wHnl-28" value="+DataListElement(Tour tour)" style="text;strokeColor=none;fillColor=none;align=left;verticalAlign=top;spacingLeft=4;spacingRight=4;overflow=hidden;rotatable=0;points=[[0,0.5],[1,0.5]];portConstraint=eastwest;whiteSpace=wrap;html=1;" vertex="1" parent="jzI1_n5GK29NUhj0wHnl-25">
          <mxGeometry y="60" width="170" height="26" as="geometry" />
        </mxCell>
        <mxCell id="jzI1_n5GK29NUhj0wHnl-33" value="Tour" style="swimlane;fontStyle=1;align=center;verticalAlign=top;childLayout=stackLayout;horizontal=1;startSize=26;horizontalStack=0;resizeParent=1;resizeParentMax=0;resizeLast=0;collapsible=1;marginBottom=0;whiteSpace=wrap;html=1;" vertex="1" parent="1">
          <mxGeometry x="637" y="470" width="190" height="216" as="geometry" />
        </mxCell>
        <mxCell id="jzI1_n5GK29NUhj0wHnl-58" value="+&amp;nbsp;int Id" style="text;strokeColor=none;fillColor=none;align=left;verticalAlign=top;spacingLeft=4;spacingRight=4;overflow=hidden;rotatable=0;points=[[0,0.5],[1,0.5]];portConstraint=eastwest;whiteSpace=wrap;html=1;" vertex="1" parent="jzI1_n5GK29NUhj0wHnl-33">
          <mxGeometry y="26" width="190" height="26" as="geometry" />
        </mxCell>
        <mxCell id="jzI1_n5GK29NUhj0wHnl-59" value="+ string Name" style="text;strokeColor=none;fillColor=none;align=left;verticalAlign=top;spacingLeft=4;spacingRight=4;overflow=hidden;rotatable=0;points=[[0,0.5],[1,0.5]];portConstraint=eastwest;whiteSpace=wrap;html=1;" vertex="1" parent="jzI1_n5GK29NUhj0wHnl-33">
          <mxGeometry y="52" width="190" height="26" as="geometry" />
        </mxCell>
        <mxCell id="jzI1_n5GK29NUhj0wHnl-62" value="+&amp;nbsp;string Description" style="text;strokeColor=none;fillColor=none;align=left;verticalAlign=top;spacingLeft=4;spacingRight=4;overflow=hidden;rotatable=0;points=[[0,0.5],[1,0.5]];portConstraint=eastwest;whiteSpace=wrap;html=1;" vertex="1" parent="jzI1_n5GK29NUhj0wHnl-33">
          <mxGeometry y="78" width="190" height="26" as="geometry" />
        </mxCell>
        <mxCell id="jzI1_n5GK29NUhj0wHnl-61" value="+&amp;nbsp;int Region" style="text;strokeColor=none;fillColor=none;align=left;verticalAlign=top;spacingLeft=4;spacingRight=4;overflow=hidden;rotatable=0;points=[[0,0.5],[1,0.5]];portConstraint=eastwest;whiteSpace=wrap;html=1;" vertex="1" parent="jzI1_n5GK29NUhj0wHnl-33">
          <mxGeometry y="104" width="190" height="26" as="geometry" />
        </mxCell>
        <mxCell id="jzI1_n5GK29NUhj0wHnl-60" value="+&amp;nbsp;int Cost" style="text;strokeColor=none;fillColor=none;align=left;verticalAlign=top;spacingLeft=4;spacingRight=4;overflow=hidden;rotatable=0;points=[[0,0.5],[1,0.5]];portConstraint=eastwest;whiteSpace=wrap;html=1;" vertex="1" parent="jzI1_n5GK29NUhj0wHnl-33">
          <mxGeometry y="130" width="190" height="26" as="geometry" />
        </mxCell>
        <mxCell id="jzI1_n5GK29NUhj0wHnl-34" value="+&amp;nbsp;bool ForPeopleWithDisabilities" style="text;strokeColor=none;fillColor=none;align=left;verticalAlign=top;spacingLeft=4;spacingRight=4;overflow=hidden;rotatable=0;points=[[0,0.5],[1,0.5]];portConstraint=eastwest;whiteSpace=wrap;html=1;" vertex="1" parent="jzI1_n5GK29NUhj0wHnl-33">
          <mxGeometry y="156" width="190" height="26" as="geometry" />
        </mxCell>
        <mxCell id="jzI1_n5GK29NUhj0wHnl-63" value="+&amp;nbsp;string URL" style="text;strokeColor=none;fillColor=none;align=left;verticalAlign=top;spacingLeft=4;spacingRight=4;overflow=hidden;rotatable=0;points=[[0,0.5],[1,0.5]];portConstraint=eastwest;whiteSpace=wrap;html=1;" vertex="1" parent="jzI1_n5GK29NUhj0wHnl-33">
          <mxGeometry y="182" width="190" height="26" as="geometry" />
        </mxCell>
        <mxCell id="jzI1_n5GK29NUhj0wHnl-35" value="" style="line;strokeWidth=1;fillColor=none;align=left;verticalAlign=middle;spacingTop=-1;spacingLeft=3;spacingRight=3;rotatable=0;labelPosition=right;points=[];portConstraint=eastwest;strokeColor=inherit;" vertex="1" parent="jzI1_n5GK29NUhj0wHnl-33">
          <mxGeometry y="208" width="190" height="8" as="geometry" />
        </mxCell>
        <mxCell id="jzI1_n5GK29NUhj0wHnl-37" value="FuzySearch" style="swimlane;fontStyle=1;align=center;verticalAlign=top;childLayout=stackLayout;horizontal=1;startSize=26;horizontalStack=0;resizeParent=1;resizeParentMax=0;resizeLast=0;collapsible=1;marginBottom=0;whiteSpace=wrap;html=1;" vertex="1" parent="1">
          <mxGeometry x="164" y="-100" width="500" height="138" as="geometry" />
        </mxCell>
        <mxCell id="jzI1_n5GK29NUhj0wHnl-39" value="" style="line;strokeWidth=1;fillColor=none;align=left;verticalAlign=middle;spacingTop=-1;spacingLeft=3;spacingRight=3;rotatable=0;labelPosition=right;points=[];portConstraint=eastwest;strokeColor=inherit;" vertex="1" parent="jzI1_n5GK29NUhj0wHnl-37">
          <mxGeometry y="26" width="500" height="8" as="geometry" />
        </mxCell>
        <mxCell id="jzI1_n5GK29NUhj0wHnl-40" value="+ FuzzySearchWordInList(List&amp;lt;string&amp;gt; data, string searchTerm, int maxDistance): string?" style="text;strokeColor=none;fillColor=none;align=left;verticalAlign=top;spacingLeft=4;spacingRight=4;overflow=hidden;rotatable=0;points=[[0,0.5],[1,0.5]];portConstraint=eastwest;whiteSpace=wrap;html=1;" vertex="1" parent="jzI1_n5GK29NUhj0wHnl-37">
          <mxGeometry y="34" width="500" height="26" as="geometry" />
        </mxCell>
        <mxCell id="jzI1_n5GK29NUhj0wHnl-38" value="+ FuzzySearchList(List&amp;lt;string&amp;gt; data, string searchTerm, int maxDistance): bool" style="text;strokeColor=none;fillColor=none;align=left;verticalAlign=top;spacingLeft=4;spacingRight=4;overflow=hidden;rotatable=0;points=[[0,0.5],[1,0.5]];portConstraint=eastwest;whiteSpace=wrap;html=1;" vertex="1" parent="jzI1_n5GK29NUhj0wHnl-37">
          <mxGeometry y="60" width="500" height="26" as="geometry" />
        </mxCell>
        <mxCell id="jzI1_n5GK29NUhj0wHnl-57" value="+ FuzzySearch(string data, string searchTerm, int maxDistance): bool&amp;nbsp;" style="text;strokeColor=none;fillColor=none;align=left;verticalAlign=top;spacingLeft=4;spacingRight=4;overflow=hidden;rotatable=0;points=[[0,0.5],[1,0.5]];portConstraint=eastwest;whiteSpace=wrap;html=1;" vertex="1" parent="jzI1_n5GK29NUhj0wHnl-37">
          <mxGeometry y="86" width="500" height="26" as="geometry" />
        </mxCell>
        <mxCell id="jzI1_n5GK29NUhj0wHnl-56" value="-&amp;nbsp; LevenshteinDistance(string s, string t): int" style="text;strokeColor=none;fillColor=none;align=left;verticalAlign=top;spacingLeft=4;spacingRight=4;overflow=hidden;rotatable=0;points=[[0,0.5],[1,0.5]];portConstraint=eastwest;whiteSpace=wrap;html=1;" vertex="1" parent="jzI1_n5GK29NUhj0wHnl-37">
          <mxGeometry y="112" width="500" height="26" as="geometry" />
        </mxCell>
        <mxCell id="jzI1_n5GK29NUhj0wHnl-66" style="edgeStyle=orthogonalEdgeStyle;rounded=0;orthogonalLoop=1;jettySize=auto;html=1;endArrow=none;startFill=0;" edge="1" parent="1" source="jzI1_n5GK29NUhj0wHnl-2" target="jzI1_n5GK29NUhj0wHnl-5">
          <mxGeometry relative="1" as="geometry" />
        </mxCell>
        <mxCell id="jzI1_n5GK29NUhj0wHnl-67" style="edgeStyle=orthogonalEdgeStyle;rounded=0;orthogonalLoop=1;jettySize=auto;html=1;endArrow=none;startFill=0;" edge="1" parent="1" source="jzI1_n5GK29NUhj0wHnl-1" target="jzI1_n5GK29NUhj0wHnl-25">
          <mxGeometry relative="1" as="geometry">
            <Array as="points">
              <mxPoint x="310" y="334" />
            </Array>
          </mxGeometry>
        </mxCell>
        <mxCell id="jzI1_n5GK29NUhj0wHnl-71" style="edgeStyle=orthogonalEdgeStyle;rounded=0;orthogonalLoop=1;jettySize=auto;html=1;endArrow=none;startFill=1;startArrow=diamondThin;" edge="1" parent="1" source="jzI1_n5GK29NUhj0wHnl-26" target="jzI1_n5GK29NUhj0wHnl-33">
          <mxGeometry relative="1" as="geometry" />
        </mxCell>
        <mxCell id="jzI1_n5GK29NUhj0wHnl-73" style="edgeStyle=orthogonalEdgeStyle;rounded=0;orthogonalLoop=1;jettySize=auto;html=1;endArrow=none;startFill=0;" edge="1" parent="1" source="jzI1_n5GK29NUhj0wHnl-13" target="jzI1_n5GK29NUhj0wHnl-17">
          <mxGeometry relative="1" as="geometry">
            <Array as="points">
              <mxPoint x="950" y="310" />
              <mxPoint x="950" y="310" />
            </Array>
          </mxGeometry>
        </mxCell>
      </root>
    </mxGraphModel>
  </diagram>
</mxfile>
